<svg id="Layer_1" data-name="Layer 1" xmlns="http://www.w3.org/2000/svg" viewBox="0 0 1133.9 1020.5"><title>Repluggable Logo</title><rect x="248.1" y="196.7" width="279.7" height="98.09"/><polygon points="248.1 380.5 248.1 478.6 396 662.3 527.8 662.3 379.9 478.6 527.8 478.6 527.8 380.5 300.9 380.5 248.1 380.5"/><rect x="606" y="564.2" width="279.7" height="98.09"/><polygon points="737.8 196.7 606 196.7 753.9 380.5 606 380.5 606 478.6 832.9 478.6 885.7 478.6 885.7 380.5 737.8 196.7"/><path d="M255.4,804.1h-7.2v-67h25.9a26.4,26.4,0,0,1,11.6,2.4,17.9,17.9,0,0,1,7.6,6.5,17.2,17.2,0,0,1,2.8,9.9,16.8,16.8,0,0,1-5.1,12.6c-3.4,3.4-7.9,5.3-13.6,5.9l25.3,29.7h-9.3L269,774.6H255.4Zm18.7-60.6H255.4v24.7h18.7c4.6,0,8.1-1.1,10.7-3.3s3.9-5.2,3.9-9a11.2,11.2,0,0,0-3.9-9.1C282.2,744.6,278.7,743.5,274.1,743.5Z"/><path d="M353.8,791l4.9,4.6a28,28,0,0,1-8.8,7.3,25.3,25.3,0,0,1-11.8,2.7,26.7,26.7,0,0,1-13.1-3.2,23.5,23.5,0,0,1-9-8.7,24.3,24.3,0,0,1-3.3-12.7,25,25,0,0,1,3.1-12.6,22.7,22.7,0,0,1,8.7-8.7,25,25,0,0,1,12.5-3.2,23.8,23.8,0,0,1,12,3.1,23.4,23.4,0,0,1,8.2,8.6,25.5,25.5,0,0,1,3,12.6v2.7H320.1a17.3,17.3,0,0,0,18.1,16C344.7,799.5,349.9,796.7,353.8,791ZM337,762.6a16,16,0,0,0-11.3,4.2,16.9,16.9,0,0,0-5.5,11h32.7c-.6-4.6-2.3-8.3-5.3-11A14.6,14.6,0,0,0,337,762.6Z"/><path d="M389.9,822.2H377.5V757h12.3v7a17.9,17.9,0,0,1,6.6-6.2,19.5,19.5,0,0,1,9.6-2.3,21.8,21.8,0,0,1,11.8,3.2,23,23,0,0,1,8.4,8.8,28,28,0,0,1,0,26,22.9,22.9,0,0,1-20.5,12.1,21.3,21.3,0,0,1-9.4-2,17.2,17.2,0,0,1-6.4-5.5Zm0-41.3v6a11.3,11.3,0,0,0,4.9,6.1,14.4,14.4,0,0,0,8,2.3,12.6,12.6,0,0,0,9.9-4.2,14.8,14.8,0,0,0,3.8-10.6c0-4.3-1.1-7.8-3.5-10.6a12.3,12.3,0,0,0-9.7-4.1,12.6,12.6,0,0,0-9.7,4.1C391.1,772.6,389.9,776.2,389.9,780.9Z"/><path d="M458.4,804.1H446V736.7h12.4Z"/><path d="M522,804.1H509.7V798a15.6,15.6,0,0,1-6.3,5.6,19.9,19.9,0,0,1-9,2c-5.4,0-9.8-1.7-13.1-4.9s-4.9-8.1-4.9-14.3V757h12.3v28.1c0,3.3.9,5.9,2.5,7.6a9.1,9.1,0,0,0,6.8,2.6,12.5,12.5,0,0,0,11.6-8.2V757H522Z"/><path d="M590.4,798.3a25.4,25.4,0,0,1-3.4,13.4,22.7,22.7,0,0,1-9.5,8.9,30.2,30.2,0,0,1-14.1,3.1,36.4,36.4,0,0,1-12.5-2.1,25,25,0,0,1-9.5-5.8l6.7-8.3a16.9,16.9,0,0,0,6.4,4.5,21.4,21.4,0,0,0,8.2,1.5c4.8,0,8.5-1.3,11.3-3.8s4.1-6.2,4.1-10.8V797a17.1,17.1,0,0,1-6.5,5.3,21.5,21.5,0,0,1-9.3,2,23,23,0,0,1-11.9-3.1,22.6,22.6,0,0,1-8.6-8.5,27.6,27.6,0,0,1,0-25.4,23.9,23.9,0,0,1,8.6-8.7,22.9,22.9,0,0,1,11.8-3.1,20.3,20.3,0,0,1,9.4,2.1,17.6,17.6,0,0,1,6.6,6.1V757h12.2ZM551.5,780a13.7,13.7,0,0,0,3.7,10,13,13,0,0,0,10,4,14.7,14.7,0,0,0,8-2.3,12.5,12.5,0,0,0,4.9-6v-4.8c0-4.9-1.3-8.6-3.9-11.2a12.8,12.8,0,0,0-9.4-3.9,12.3,12.3,0,0,0-9.7,4.1A14.7,14.7,0,0,0,551.5,780Z"/><path d="M658.9,798.3a26.4,26.4,0,0,1-3.4,13.4,23.3,23.3,0,0,1-9.5,8.9,30.6,30.6,0,0,1-14.2,3.1,35.9,35.9,0,0,1-12.4-2.1,25.4,25.4,0,0,1-9.6-5.8l6.8-8.3a17.4,17.4,0,0,0,6.3,4.5,21.9,21.9,0,0,0,8.3,1.5c4.7,0,8.5-1.3,11.2-3.8s4.1-6.2,4.1-10.8V797a17.1,17.1,0,0,1-6.5,5.3,21.2,21.2,0,0,1-9.3,2,22.6,22.6,0,0,1-11.8-3.1,22,22,0,0,1-8.6-8.5,26.8,26.8,0,0,1,0-25.4,23.2,23.2,0,0,1,8.6-8.7,22.5,22.5,0,0,1,11.7-3.1,20.8,20.8,0,0,1,9.5,2.1,17.3,17.3,0,0,1,6.5,6.1V757h12.3Zm-39-18.3a13.8,13.8,0,0,0,3.8,10c2.5,2.7,5.8,4,10,4a14.3,14.3,0,0,0,7.9-2.3,11.5,11.5,0,0,0,4.9-6v-4.8c0-4.9-1.3-8.6-3.9-11.2a12.8,12.8,0,0,0-9.4-3.9,11.9,11.9,0,0,0-9.6,4.1A14.8,14.8,0,0,0,619.9,780Z"/><path d="M693.5,805.6a21.8,21.8,0,0,1-9.5-2,14.9,14.9,0,0,1-6.4-5.4,13.8,13.8,0,0,1-2.3-8.1,12.7,12.7,0,0,1,6.2-11.3c4.2-2.7,9.7-4.1,16.6-4.1H709a9.2,9.2,0,0,0-3.5-7.1,13,13,0,0,0-8.4-2.6,18.8,18.8,0,0,0-7.6,1.6,21.7,21.7,0,0,0-6.1,4.3l-6.4-7.5a26.3,26.3,0,0,1,9-5.8,32,32,0,0,1,11.7-2.1,30.4,30.4,0,0,1,12.1,2.3,19.8,19.8,0,0,1,8.1,6.7,19.1,19.1,0,0,1,2.9,10.6v29H709.5v-5.5a17.3,17.3,0,0,1-6.7,5.1A21.2,21.2,0,0,1,693.5,805.6Zm2.9-9.3a14.9,14.9,0,0,0,7.6-2,12.8,12.8,0,0,0,5-5.6v-6h-9.9a16.3,16.3,0,0,0-8.2,1.8,5.8,5.8,0,0,0-3.1,5.2,5.7,5.7,0,0,0,2.4,4.8A10.1,10.1,0,0,0,696.4,796.3Z"/><path d="M750.8,804.1H738.5V736.7h12.3v26.9a17.9,17.9,0,0,1,6.6-5.9,19.5,19.5,0,0,1,9.6-2.2,21.8,21.8,0,0,1,11.8,3.2,23,23,0,0,1,8.4,8.8,28,28,0,0,1,0,26,22.9,22.9,0,0,1-20.5,12.1,20.2,20.2,0,0,1-9.5-2.1,17.2,17.2,0,0,1-6.4-5.5Zm0-23.2v6a12,12,0,0,0,5,6.1,14.4,14.4,0,0,0,8,2.3,12.6,12.6,0,0,0,9.9-4.2,14.8,14.8,0,0,0,3.8-10.6,16.1,16.1,0,0,0-3.5-10.6,13.4,13.4,0,0,0-19.3,0C752.1,772.6,750.8,776.2,750.8,780.9Z"/><path d="M819.4,804.1H807V736.7h12.4Z"/><path d="M878.6,789.4l6.5,7.6a25.5,25.5,0,0,1-9.2,6.3,32.3,32.3,0,0,1-12.2,2.3,31.8,31.8,0,0,1-14.4-3.2,23.3,23.3,0,0,1-13.1-21.8,25.5,25.5,0,0,1,3.3-13.1,22.7,22.7,0,0,1,9.1-8.8,25.6,25.6,0,0,1,13-3.2,24.4,24.4,0,0,1,12.5,3.1,22.9,22.9,0,0,1,8.5,8.7,25.3,25.3,0,0,1,3.1,12.8v4.3H849.1a13.8,13.8,0,0,0,5.3,8.5,16.1,16.1,0,0,0,9.9,2.9A18.3,18.3,0,0,0,878.6,789.4Zm-17.1-24.3a12,12,0,0,0-8.2,3,14.1,14.1,0,0,0-4.2,8.3h24.3a13.5,13.5,0,0,0-3.9-8.2A10.9,10.9,0,0,0,861.5,765.1Z"/></svg>